<?xml version="1.0" encoding="UTF-8"?>
<!--Generator: Apple Native CoreSVG 149-->
<!DOCTYPE svg
PUBLIC "-//W3C//DTD SVG 1.1//EN"
       "http://www.w3.org/Graphics/SVG/1.1/DTD/svg11.dtd">
<svg version="1.1" xmlns="http://www.w3.org/2000/svg" xmlns:xlink="http://www.w3.org/1999/xlink" width="3300" height="2200">
 <!--glyph: "uni100CA0.medium", point size: 100.000000, font version: "Version 16.0d18e1", template writer version: "8"-->
 <g id="Notes">
  <rect height="2200" id="artboard" style="fill:white;opacity:1" width="3300" x="0" y="0"/>
  <line id="" style="fill:none;stroke:black;opacity:1;stroke-width:0.5;" x1="263" x2="3036" y1="292" y2="292"/>
  <text style="stroke:none;fill:black;font-family:-apple-system,&quot;SF Pro Display&quot;,&quot;SF Pro Text&quot;,Helvetica,sans-serif;font-weight:bold;" transform="matrix(1 0 0 1 263 322)">Weight/Scale Variations</text>
  <text style="stroke:none;fill:black;font-family:-apple-system,&quot;SF Pro Display&quot;,&quot;SF Pro Text&quot;,Helvetica,sans-serif;text-anchor:middle;" transform="matrix(1 0 0 1 559.711 322)">Ultralight</text>
  <text style="stroke:none;fill:black;font-family:-apple-system,&quot;SF Pro Display&quot;,&quot;SF Pro Text&quot;,Helvetica,sans-serif;text-anchor:middle;" transform="matrix(1 0 0 1 856.422 322)">Thin</text>
  <text style="stroke:none;fill:black;font-family:-apple-system,&quot;SF Pro Display&quot;,&quot;SF Pro Text&quot;,Helvetica,sans-serif;text-anchor:middle;" transform="matrix(1 0 0 1 1153.13 322)">Light</text>
  <text style="stroke:none;fill:black;font-family:-apple-system,&quot;SF Pro Display&quot;,&quot;SF Pro Text&quot;,Helvetica,sans-serif;text-anchor:middle;" transform="matrix(1 0 0 1 1449.84 322)">Regular</text>
  <text style="stroke:none;fill:black;font-family:-apple-system,&quot;SF Pro Display&quot;,&quot;SF Pro Text&quot;,Helvetica,sans-serif;text-anchor:middle;" transform="matrix(1 0 0 1 1746.56 322)">Medium</text>
  <text style="stroke:none;fill:black;font-family:-apple-system,&quot;SF Pro Display&quot;,&quot;SF Pro Text&quot;,Helvetica,sans-serif;text-anchor:middle;" transform="matrix(1 0 0 1 2043.27 322)">Semibold</text>
  <text style="stroke:none;fill:black;font-family:-apple-system,&quot;SF Pro Display&quot;,&quot;SF Pro Text&quot;,Helvetica,sans-serif;text-anchor:middle;" transform="matrix(1 0 0 1 2339.98 322)">Bold</text>
  <text style="stroke:none;fill:black;font-family:-apple-system,&quot;SF Pro Display&quot;,&quot;SF Pro Text&quot;,Helvetica,sans-serif;text-anchor:middle;" transform="matrix(1 0 0 1 2636.69 322)">Heavy</text>
  <text style="stroke:none;fill:black;font-family:-apple-system,&quot;SF Pro Display&quot;,&quot;SF Pro Text&quot;,Helvetica,sans-serif;text-anchor:middle;" transform="matrix(1 0 0 1 2933.4 322)">Black</text>
  <line id="" style="fill:none;stroke:black;opacity:1;stroke-width:0.5;" x1="263" x2="3036" y1="1903" y2="1903"/>
  <g id="" transform="matrix(1 0 0 1 263 1933)">
   <path d="M9.24805 0.830078C13.5547 0.830078 17.1387-2.74414 17.1387-7.05078C17.1387-11.3574 13.5449-14.9316 9.23828-14.9316C4.94141-14.9316 1.36719-11.3574 1.36719-7.05078C1.36719-2.74414 4.95117 0.830078 9.24805 0.830078ZM9.24805-0.654297C5.70312-0.654297 2.87109-3.49609 2.87109-7.05078C2.87109-10.6055 5.69336-13.4473 9.23828-13.4473C12.793-13.4473 15.6348-10.6055 15.6445-7.05078C15.6543-3.49609 12.8027-0.654297 9.24805-0.654297ZM6.39648-6.31836L8.50586-6.31836L8.50586-4.19922C8.50586-3.75977 8.79883-3.45703 9.22852-3.45703C9.67773-3.45703 9.9707-3.75977 9.9707-4.19922L9.9707-6.31836L12.0996-6.31836C12.5391-6.31836 12.8418-6.61133 12.8418-7.04102C12.8418-7.48047 12.5391-7.7832 12.0996-7.7832L9.9707-7.7832L9.9707-9.89258C9.9707-10.3418 9.67773-10.6445 9.22852-10.6445C8.79883-10.6445 8.50586-10.3418 8.50586-9.89258L8.50586-7.7832L6.39648-7.7832C5.94727-7.7832 5.64453-7.48047 5.64453-7.04102C5.64453-6.61133 5.94727-6.31836 6.39648-6.31836Z"/>
  </g>
  <g id="" transform="matrix(1 0 0 1 281.506 1933)">
   <path d="M11.709 2.91016C17.1582 2.91016 21.6699-1.61133 21.6699-7.05078C21.6699-12.5 17.1484-17.0117 11.6992-17.0117C6.25977-17.0117 1.74805-12.5 1.74805-7.05078C1.74805-1.61133 6.26953 2.91016 11.709 2.91016ZM11.709 1.25C7.09961 1.25 3.41797-2.44141 3.41797-7.05078C3.41797-11.6602 7.08984-15.3516 11.6992-15.3516C16.3086-15.3516 20-11.6602 20.0098-7.05078C20.0195-2.44141 16.3184 1.25 11.709 1.25ZM7.98828-6.23047L10.8789-6.23047L10.8789-3.32031C10.8789-2.83203 11.2109-2.5 11.6895-2.5C12.1777-2.5 12.5195-2.83203 12.5195-3.32031L12.5195-6.23047L15.4297-6.23047C15.918-6.23047 16.25-6.5625 16.25-7.04102C16.25-7.5293 15.918-7.87109 15.4297-7.87109L12.5195-7.87109L12.5195-10.7617C12.5195-11.2695 12.1777-11.6016 11.6895-11.6016C11.2109-11.6016 10.8789-11.2598 10.8789-10.7617L10.8789-7.87109L7.98828-7.87109C7.48047-7.87109 7.14844-7.5293 7.14844-7.04102C7.14844-6.5625 7.49023-6.23047 7.98828-6.23047Z"/>
  </g>
  <g id="" transform="matrix(1 0 0 1 304.924 1933)">
   <path d="M14.9707 5.66406C21.9336 5.66406 27.6953-0.0976562 27.6953-7.05078C27.6953-14.0137 21.9238-19.7754 14.9609-19.7754C8.00781-19.7754 2.25586-14.0137 2.25586-7.05078C2.25586-0.0976562 8.01758 5.66406 14.9707 5.66406ZM14.9707 3.84766C8.93555 3.84766 4.08203-1.01562 4.08203-7.05078C4.08203-13.0957 8.92578-17.9492 14.9609-17.9492C21.0059-17.9492 25.8594-13.0957 25.8691-7.05078C25.8789-1.01562 21.0156 3.84766 14.9707 3.84766ZM10.0586-6.14258L14.0625-6.14258L14.0625-2.12891C14.0625-1.5918 14.4336-1.2207 14.9512-1.2207C15.4883-1.2207 15.8594-1.5918 15.8594-2.12891L15.8594-6.14258L19.8828-6.14258C20.4102-6.14258 20.791-6.51367 20.791-7.03125C20.791-7.56836 20.4199-7.94922 19.8828-7.94922L15.8594-7.94922L15.8594-11.9531C15.8594-12.5098 15.4883-12.8809 14.9512-12.8809C14.4336-12.8809 14.0625-12.5 14.0625-11.9531L14.0625-7.94922L10.0586-7.94922C9.50195-7.94922 9.13086-7.56836 9.13086-7.03125C9.13086-6.51367 9.51172-6.14258 10.0586-6.14258Z"/>
  </g>
  <text style="stroke:none;fill:black;font-family:-apple-system,&quot;SF Pro Display&quot;,&quot;SF Pro Text&quot;,Helvetica,sans-serif;font-weight:bold;" transform="matrix(1 0 0 1 263 1953)">Design Variations</text>
  <text style="stroke:none;fill:black;font-family:-apple-system,&quot;SF Pro Display&quot;,&quot;SF Pro Text&quot;,Helvetica,sans-serif;" transform="matrix(1 0 0 1 263 1971)">Symbols are supported in up to nine weights and three scales.</text>
  <text style="stroke:none;fill:black;font-family:-apple-system,&quot;SF Pro Display&quot;,&quot;SF Pro Text&quot;,Helvetica,sans-serif;" transform="matrix(1 0 0 1 263 1989)">For optimal layout with text and other symbols, vertically align</text>
  <text style="stroke:none;fill:black;font-family:-apple-system,&quot;SF Pro Display&quot;,&quot;SF Pro Text&quot;,Helvetica,sans-serif;" transform="matrix(1 0 0 1 263 2007)">symbols with the adjacent text.</text>
  <line id="" style="fill:none;stroke:#00AEEF;stroke-width:0.5;opacity:1.0;" x1="776" x2="776" y1="1919" y2="1933"/>
  <g id="" transform="matrix(1 0 0 1 776 1933)">
   <path d="M3.31055 0.126953C3.82812 0.126953 4.08203-0.0683594 4.26758-0.605469L5.52734-4.0625L11.2891-4.0625L12.5488-0.605469C12.7344-0.0683594 12.9883 0.126953 13.4961 0.126953C14.0137 0.126953 14.3457-0.185547 14.3457-0.673828C14.3457-0.839844 14.3164-0.986328 14.2383-1.20117L9.6582-13.3887C9.43359-13.9941 9.0332-14.2871 8.4082-14.2871C7.80273-14.2871 7.39258-13.9941 7.17773-13.3984L2.59766-1.19141C2.51953-0.976562 2.49023-0.830078 2.49023-0.664062C2.49023-0.175781 2.80273 0.126953 3.31055 0.126953ZM6.00586-5.53711L8.37891-12.1094L8.42773-12.1094L10.8008-5.53711Z"/>
  </g>
  <line id="" style="fill:none;stroke:#00AEEF;stroke-width:0.5;opacity:1.0;" x1="792.836" x2="792.836" y1="1919" y2="1933"/>
  <text style="stroke:none;fill:black;font-family:-apple-system,&quot;SF Pro Display&quot;,&quot;SF Pro Text&quot;,Helvetica,sans-serif;font-weight:bold;" transform="matrix(1 0 0 1 776 1953)">Margins</text>
  <text style="stroke:none;fill:black;font-family:-apple-system,&quot;SF Pro Display&quot;,&quot;SF Pro Text&quot;,Helvetica,sans-serif;" transform="matrix(1 0 0 1 776 1971)">Leading and trailing margins on the left and right side of each symbol</text>
  <text style="stroke:none;fill:black;font-family:-apple-system,&quot;SF Pro Display&quot;,&quot;SF Pro Text&quot;,Helvetica,sans-serif;" transform="matrix(1 0 0 1 776 1989)">can be adjusted by modifying the x-location of the margin guidelines.</text>
  <text style="stroke:none;fill:black;font-family:-apple-system,&quot;SF Pro Display&quot;,&quot;SF Pro Text&quot;,Helvetica,sans-serif;" transform="matrix(1 0 0 1 776 2007)">Modifications are automatically applied proportionally to all</text>
  <text style="stroke:none;fill:black;font-family:-apple-system,&quot;SF Pro Display&quot;,&quot;SF Pro Text&quot;,Helvetica,sans-serif;" transform="matrix(1 0 0 1 776 2025)">scales and weights.</text>
  <g id="" transform="matrix(1 0 0 1 1289 1933)">
   <path d="M2.8418 1.86523L4.54102 3.57422C5.40039 4.44336 6.38672 4.38477 7.31445 3.35938L17.4902-7.85156C17.7539-7.76367 18.0273-7.7832 18.3398-7.8418L19.4043-8.03711L20.0684-7.36328L20.0293-6.80664C19.9902-6.30859 20.1172-5.92773 20.6055-5.44922L21.3672-4.70703C21.8457-4.22852 22.4609-4.19922 22.9297-4.66797L25.8398-7.58789C26.3086-8.05664 26.2891-8.65234 25.8105-9.13086L25.0391-9.89258C24.5605-10.3711 24.1895-10.5273 23.7109-10.4883L23.1348-10.4395L22.4902-11.0742L22.7344-12.1973C22.8613-12.7637 22.7051-13.2031 22.1191-13.7891L19.9219-15.9766C16.582-19.2969 12.1484-19.2188 9.25781-16.3281C8.83789-15.918 8.80859-15.3418 9.04297-14.9512C9.27734-14.5898 9.73633-14.3555 10.3809-14.5215C11.8457-14.8633 13.3691-14.9219 14.7949-13.9844L14.209-12.5293C14.0137-12.0508 13.9844-11.6504 14.1113-11.2891L3.04688-0.898438C2.06055 0.0195312 1.98242 0.996094 2.8418 1.86523ZM10.752-15.957C13.1836-17.7344 16.4746-17.4316 18.7012-15.2051L21.1328-12.793C21.3672-12.5586 21.4062-12.373 21.3379-12.0312L21.0156-10.5469L22.5195-9.0625L23.5059-9.12109C23.7598-9.13086 23.8379-9.11133 24.0332-8.91602L24.6094-8.33984L22.168-5.89844L21.5918-6.47461C21.3965-6.66992 21.3672-6.74805 21.377-7.01172L21.4453-7.98828L19.9512-9.47266L18.4277-9.21875C18.1055-9.15039 17.959-9.17969 17.7148-9.41406L15.7129-11.416C15.459-11.6504 15.4297-11.8164 15.5859-12.1875L16.4648-14.2773C14.9023-15.7324 12.8711-16.3574 10.8398-15.7617C10.6836-15.7227 10.625-15.8496 10.752-15.957ZM5.27344 2.30469L4.10156 1.14258C3.63281 0.683594 3.74023 0.341797 4.14062-0.0195312L14.9512-10.1953L16.416-8.71094L6.42578 2.27539C6.07422 2.67578 5.74219 2.77344 5.27344 2.30469Z"/>
  </g>
  <text style="stroke:none;fill:black;font-family:-apple-system,&quot;SF Pro Display&quot;,&quot;SF Pro Text&quot;,Helvetica,sans-serif;font-weight:bold;" transform="matrix(1 0 0 1 1289 1953)">Exporting</text>
  <text style="stroke:none;fill:black;font-family:-apple-system,&quot;SF Pro Display&quot;,&quot;SF Pro Text&quot;,Helvetica,sans-serif;" transform="matrix(1 0 0 1 1289 1971)">Symbols should be outlined when exporting to ensure the</text>
  <text style="stroke:none;fill:black;font-family:-apple-system,&quot;SF Pro Display&quot;,&quot;SF Pro Text&quot;,Helvetica,sans-serif;" transform="matrix(1 0 0 1 1289 1989)">design is preserved when submitting to Xcode.</text>
  <text id="template-version" style="stroke:none;fill:black;font-family:-apple-system,&quot;SF Pro Display&quot;,&quot;SF Pro Text&quot;,Helvetica,sans-serif;text-anchor:end;" transform="matrix(1 0 0 1 3036 1933)">Template v.2.0</text>
  <text style="stroke:none;fill:black;font-family:-apple-system,&quot;SF Pro Display&quot;,&quot;SF Pro Text&quot;,Helvetica,sans-serif;text-anchor:end;" transform="matrix(1 0 0 1 3036 1951)">Requires Xcode 12 or greater</text>
  <text style="stroke:none;fill:black;font-family:-apple-system,&quot;SF Pro Display&quot;,&quot;SF Pro Text&quot;,Helvetica,sans-serif;text-anchor:end;" transform="matrix(1 0 0 1 3036 1969)">Generated from oval.portrait</text>
  <text style="stroke:none;fill:black;font-family:-apple-system,&quot;SF Pro Display&quot;,&quot;SF Pro Text&quot;,Helvetica,sans-serif;text-anchor:end;" transform="matrix(1 0 0 1 3036 1987)">Typeset at 100 points</text>
  <text style="stroke:none;fill:black;font-family:-apple-system,&quot;SF Pro Display&quot;,&quot;SF Pro Text&quot;,Helvetica,sans-serif;" transform="matrix(1 0 0 1 263 726)">Small</text>
  <text style="stroke:none;fill:black;font-family:-apple-system,&quot;SF Pro Display&quot;,&quot;SF Pro Text&quot;,Helvetica,sans-serif;" transform="matrix(1 0 0 1 263 1156)">Medium</text>
  <text style="stroke:none;fill:black;font-family:-apple-system,&quot;SF Pro Display&quot;,&quot;SF Pro Text&quot;,Helvetica,sans-serif;" transform="matrix(1 0 0 1 263 1586)">Large</text>
 </g>
 <g id="Guides">
  <g id="H-reference" style="fill:#27AAE1;stroke:none;" transform="matrix(1 0 0 1 339 696)">
   <path d="M0.976562 0L3.66211 0L12.9883-24.4629L45.752-24.4629L55.127 0L57.7637 0L30.6152-70.459L28.125-70.459ZM29.3457-67.1387L29.4434-67.1387L44.873-26.709L13.8672-26.709Z"/>
  </g>
  <line id="Baseline-S" style="fill:none;stroke:#27AAE1;opacity:1;stroke-width:0.5;" x1="263" x2="3036" y1="696" y2="696"/>
  <line id="Capline-S" style="fill:none;stroke:#27AAE1;opacity:1;stroke-width:0.5;" x1="263" x2="3036" y1="625.541" y2="625.541"/>
  <g id="H-reference" style="fill:#27AAE1;stroke:none;" transform="matrix(1 0 0 1 339 1126)">
   <path d="M0.976562 0L3.66211 0L12.9883-24.4629L45.752-24.4629L55.127 0L57.7637 0L30.6152-70.459L28.125-70.459ZM29.3457-67.1387L29.4434-67.1387L44.873-26.709L13.8672-26.709Z"/>
  </g>
  <line id="Baseline-M" style="fill:none;stroke:#27AAE1;opacity:1;stroke-width:0.5;" x1="263" x2="3036" y1="1126" y2="1126"/>
  <line id="Capline-M" style="fill:none;stroke:#27AAE1;opacity:1;stroke-width:0.5;" x1="263" x2="3036" y1="1055.54" y2="1055.54"/>
  <g id="H-reference" style="fill:#27AAE1;stroke:none;" transform="matrix(1 0 0 1 339 1556)">
   <path d="M0.976562 0L3.66211 0L12.9883-24.4629L45.752-24.4629L55.127 0L57.7637 0L30.6152-70.459L28.125-70.459ZM29.3457-67.1387L29.4434-67.1387L44.873-26.709L13.8672-26.709Z"/>
  </g>
  <line id="Baseline-L" style="fill:none;stroke:#27AAE1;opacity:1;stroke-width:0.5;" x1="263" x2="3036" y1="1556" y2="1556"/>
  <line id="Capline-L" style="fill:none;stroke:#27AAE1;opacity:1;stroke-width:0.5;" x1="263" x2="3036" y1="1485.54" y2="1485.54"/>
  <line id="left-margin" style="fill:none;stroke:#00AEEF;stroke-width:0.5;opacity:1.0;" x1="1396.13" x2="1396.13" y1="1030.79" y2="1150.12"/>
  <line id="right-margin" style="fill:none;stroke:#00AEEF;stroke-width:0.5;opacity:1.0;" x1="1503.56" x2="1503.56" y1="1030.79" y2="1150.12"/>
 </g>
 <g id="Symbols">
  <g id="Black-L" transform="matrix(1 0 0 1 2859.35 1556)">
   <path d="M74.0723-114.941C37.1094-114.941 11.2793-81.8848 11.2793-35.2539C11.2793 11.3281 37.1094 44.4336 74.0723 44.4336C111.035 44.4336 136.816 11.3281 136.816-35.2539C136.816-81.8848 111.035-114.941 74.0723-114.941ZM74.0723-92.7734C97.9492-92.7734 114.648-69.2871 114.648-35.2539C114.648-1.2207 97.9492 22.2656 74.0723 22.2656C50.1465 22.2656 33.4473-1.2207 33.4473-35.2539C33.4473-69.2871 50.1465-92.7734 74.0723-92.7734Z"/>
  </g>
  <g id="Heavy-L" transform="matrix(1 0 0 1 2564.03 1556)">
   <path d="M72.7051-113.623C36.5234-113.623 11.2793-81.1523 11.2793-35.2539C11.2793 10.5957 36.5234 43.1152 72.7051 43.1152C108.887 43.1152 134.033 10.5957 134.033-35.2539C134.033-81.1523 108.887-113.623 72.7051-113.623ZM72.7051-94.6777C97.6562-94.6777 115.039-70.3613 115.039-35.2539C115.039-0.195312 97.6562 24.1211 72.7051 24.1211C47.6562 24.1211 30.2734-0.195312 30.2734-35.2539C30.2734-70.3125 47.6562-94.6777 72.7051-94.6777Z"/>
  </g>
  <g id="Bold-L" transform="matrix(1 0 0 1 2268.88 1556)">
   <path d="M71.1426-112.158C35.8398-112.158 11.2793-80.3223 11.2793-35.2539C11.2793 9.76562 35.8398 41.6504 71.1426 41.6504C106.445 41.6504 130.908 9.81445 130.908-35.2539C130.908-80.3223 106.445-112.158 71.1426-112.158ZM71.1426-96.7773C97.3145-96.7773 115.479-71.4844 115.479-35.2539C115.479 0.976562 97.3145 26.2207 71.1426 26.2207C44.9219 26.2207 26.709 0.927734 26.709-35.2539C26.709-71.4844 44.9219-96.7773 71.1426-96.7773Z"/>
  </g>
  <g id="Semibold-L" transform="matrix(1 0 0 1 1973.25 1556)">
   <path d="M70.0684-111.182C35.3516-111.182 11.2793-79.7363 11.2793-35.2539C11.2793 9.22852 35.3516 40.625 70.0684 40.625C104.736 40.625 128.76 9.22852 128.76-35.2539C128.76-79.7852 104.736-111.182 70.0684-111.182ZM70.0684-98.1934C97.0703-98.1934 115.82-72.3145 115.82-35.2539C115.82 1.75781 97.0703 27.6855 70.0684 27.6855C43.0176 27.6855 24.2188 1.75781 24.2188-35.2539C24.2188-72.2656 43.0176-98.1934 70.0684-98.1934Z"/>
  </g>
  <g id="Medium-L" transform="matrix(1 0 0 1 1677.34 1556)">
   <path d="M69.2383-110.4C35.0098-110.4 11.2793-79.2969 11.2793-35.2539C11.2793 8.78906 35.0098 39.8438 69.2383 39.8438C103.467 39.8438 127.148 8.83789 127.148-35.2539C127.148-79.3457 103.467-110.4 69.2383-110.4ZM69.2383-99.3164C96.875-99.3164 116.064-72.9004 116.064-35.2539C116.064 2.34375 96.875 28.7598 69.2383 28.7598C41.6016 28.7598 22.3633 2.34375 22.3633-35.2539C22.3633-72.9004 41.6016-99.3164 69.2383-99.3164Z"/>
  </g>
  <g id="Regular-L" transform="matrix(1 0 0 1 1381.7 1556)">
   <path d="M68.1641-109.375C34.5703-109.375 11.2793-78.7598 11.2793-35.2539C11.2793 8.20312 34.5703 38.8672 68.1641 38.8672C101.807 38.8672 125 8.30078 125-35.2539C125-78.8086 101.807-109.375 68.1641-109.375ZM68.1641-100.732C96.6309-100.732 116.357-73.6816 116.357-35.2539C116.357 3.17383 96.6309 30.1758 68.1641 30.1758C39.6973 30.1758 19.9219 3.125 19.9219-35.2539C19.9219-73.6816 39.6973-100.732 68.1641-100.732Z"/>
  </g>
  <g id="Light-L" transform="matrix(1 0 0 1 1086.58 1556)">
   <path d="M66.5527-107.568C33.9355-107.568 11.2793-77.7344 11.2793-35.2539C11.2793 7.22656 33.9355 37.0605 66.5527 37.0605C99.2676 37.0605 121.826 7.32422 121.826-35.2539C121.826-77.832 99.2676-107.568 66.5527-107.568ZM66.5527-100.977C95.2148-100.977 115.186-73.877 115.186-35.2539C115.186 3.32031 95.2148 30.4199 66.5527 30.4199C37.9395 30.4199 17.9199 3.27148 17.9199-35.2539C17.9199-73.8281 37.9395-100.977 66.5527-100.977Z"/>
  </g>
  <g id="Thin-L" transform="matrix(1 0 0 1 791.994 1556)">
   <path d="M64.4531-105.225C33.0566-105.225 11.2793-76.416 11.2793-35.2539C11.2793 5.85938 33.0566 34.668 64.4531 34.668C95.8984 34.668 117.578 6.00586 117.578-35.2539C117.578-76.5625 95.8984-105.225 64.4531-105.225ZM64.4531-101.27C93.3105-101.27 113.672-74.1211 113.672-35.2539C113.672 3.56445 93.3105 30.7617 64.4531 30.7617C35.5469 30.7617 15.1855 3.51562 15.1855-35.2539C15.1855-74.0723 35.5469-101.27 64.4531-101.27Z"/>
  </g>
  <g id="Ultralight-L" transform="matrix(1 0 0 1 496.357 1556)">
   <path d="M63.3301-104.004C32.6172-104.004 11.2793-75.7324 11.2793-35.2539C11.2793 5.17578 32.6172 33.4473 63.3301 33.4473C94.1406 33.4473 115.43 5.32227 115.43-35.2539C115.43-75.8789 94.1406-104.004 63.3301-104.004ZM63.3301-101.465C92.3828-101.465 112.891-74.2676 112.891-35.2539C112.891 3.71094 92.3828 30.9082 63.3301 30.9082C34.3262 30.9082 13.8184 3.61328 13.8184-35.2539C13.8184-74.1699 34.3262-101.465 63.3301-101.465Z"/>
  </g>
  <g id="Black-M" transform="matrix(1 0 0 1 2875 1126)">
   <path d="M58.4473-97.8516C29.1992-97.8516 8.74023-71.8262 8.74023-35.2539C8.74023 1.31836 29.1992 27.2949 58.4473 27.2949C87.6465 27.2949 108.057 1.31836 108.057-35.2539C108.057-71.8262 87.6465-97.8516 58.4473-97.8516ZM58.4473-77.4414C75.5859-77.4414 87.6953-60.3516 87.6953-35.2539C87.6953-10.2051 75.5859 6.93359 58.4473 6.93359C41.2109 6.93359 29.1504-10.2051 29.1504-35.2539C29.1504-60.3516 41.2109-77.4414 58.4473-77.4414Z"/>
  </g>
  <g id="Heavy-M" transform="matrix(1 0 0 1 2579.39 1126)">
   <path d="M57.3242-96.875C28.7109-96.875 8.74023-71.2891 8.74023-35.2539C8.74023 0.78125 28.7109 26.3672 57.3242 26.3672C85.9375 26.3672 105.859 0.78125 105.859-35.2539C105.859-71.2891 85.9375-96.875 57.3242-96.875ZM57.3242-79.4434C75.6348-79.4434 88.4277-61.4258 88.4277-35.2539C88.4277-9.08203 75.6348 8.88672 57.3242 8.88672C39.0137 8.88672 26.1719-9.08203 26.1719-35.2539C26.1719-61.4258 39.0137-79.4434 57.3242-79.4434Z"/>
  </g>
  <g id="Bold-M" transform="matrix(1 0 0 1 2283.92 1126)">
   <path d="M56.1035-95.8008C28.1738-95.8008 8.74023-70.7031 8.74023-35.2539C8.74023 0.146484 28.1738 25.2441 56.1035 25.2441C83.9844 25.2441 103.369 0.195312 103.369-35.2539C103.369-70.7031 83.9844-95.8008 56.1035-95.8008ZM56.1035-81.6406C75.6348-81.6406 89.2578-62.6465 89.2578-35.2539C89.2578-7.91016 75.6348 11.1328 56.1035 11.1328C36.5234 11.1328 22.8516-7.91016 22.8516-35.2539C22.8516-62.6465 36.5234-81.6406 56.1035-81.6406Z"/>
  </g>
  <g id="Semibold-M" transform="matrix(1 0 0 1 1988.07 1126)">
   <path d="M55.2246-95.0195C27.832-95.0195 8.74023-70.2637 8.74023-35.2539C8.74023-0.244141 27.832 24.5117 55.2246 24.5117C82.666 24.5117 101.66-0.244141 101.66-35.2539C101.66-70.2637 82.666-95.0195 55.2246-95.0195ZM55.2246-83.2031C75.6836-83.2031 89.8438-63.4766 89.8438-35.2539C89.8438-7.03125 75.6836 12.6465 55.2246 12.6465C34.8145 12.6465 20.6055-7.08008 20.6055-35.2539C20.6055-63.4766 34.8145-83.2031 55.2246-83.2031Z"/>
  </g>
  <g id="Medium-M" transform="matrix(1 0 0 1 1691.99 1126)">
   <path d="M54.5898-94.4824C27.5391-94.4824 8.74023-69.9707 8.74023-35.2539C8.74023-0.585938 27.5391 23.9258 54.5898 23.9258C81.6895 23.9258 100.391-0.537109 100.391-35.2539C100.391-69.9707 81.6895-94.4824 54.5898-94.4824ZM54.5898-84.3262C75.6836-84.3262 90.2832-64.1113 90.2832-35.2539C90.2832-6.39648 75.6836 13.8184 54.5898 13.8184C33.4961 13.8184 18.8477-6.44531 18.8477-35.2539C18.8477-64.1113 33.4961-84.3262 54.5898-84.3262Z"/>
  </g>
  <g id="Regular-M" transform="matrix(1 0 0 1 1396.13 1126)">
   <path d="M53.7598-93.7012C27.1484-93.7012 8.74023-69.5312 8.74023-35.2539C8.74023-0.976562 27.1484 23.1934 53.7598 23.1934C80.3711 23.1934 98.6816-0.927734 98.6816-35.2539C98.6816-69.5801 80.3711-93.7012 53.7598-93.7012ZM53.7598-85.8398C75.6836-85.8398 90.8203-64.9414 90.8203-35.2539C90.8203-5.56641 75.6836 15.332 53.7598 15.332C31.7871 15.332 16.6016-5.61523 16.6016-35.2539C16.6016-64.9414 31.7871-85.8398 53.7598-85.8398Z"/>
  </g>
  <g id="Light-M" transform="matrix(1 0 0 1 1100.84 1126)">
   <path d="M52.2949-92.0898C26.5625-92.0898 8.74023-68.6523 8.74023-35.2539C8.74023-1.9043 26.5625 21.582 52.2949 21.582C78.0762 21.582 95.8496-1.80664 95.8496-35.2539C95.8496-68.7012 78.0762-92.0898 52.2949-92.0898ZM52.2949-86.084C74.4141-86.084 89.7949-65.0879 89.7949-35.2539C89.7949-5.41992 74.4141 15.5273 52.2949 15.5273C30.1758 15.5273 14.7949-5.46875 14.7949-35.2539C14.7949-65.0879 30.1758-86.084 52.2949-86.084Z"/>
  </g>
  <g id="Thin-M" transform="matrix(1 0 0 1 806.032 1126)">
   <path d="M50.3906-89.9902C25.7812-89.9902 8.74023-67.4316 8.74023-35.2539C8.74023-3.07617 25.7812 19.4824 50.3906 19.4824C75.0488 19.4824 92.041-2.97852 92.041-35.2539C92.041-67.5293 75.0488-89.9902 50.3906-89.9902ZM50.3906-86.377C72.7539-86.377 88.4277-65.332 88.4277-35.2539C88.4277-5.17578 72.7539 15.8203 50.3906 15.8203C28.0762 15.8203 12.3535-5.27344 12.3535-35.2539C12.3535-65.2832 28.0762-86.377 50.3906-86.377Z"/>
  </g>
  <g id="Ultralight-M" transform="matrix(1 0 0 1 510.297 1126)">
   <path d="M49.4141-88.916C25.3906-88.916 8.74023-66.7969 8.74023-35.2539C8.74023-3.71094 25.3906 18.3594 49.4141 18.3594C73.4863 18.3594 90.0879-3.56445 90.0879-35.2539C90.0879-66.9434 73.4863-88.916 49.4141-88.916ZM49.4141-86.5234C71.875-86.5234 87.6953-65.4297 87.6953-35.2539C87.6953-5.07812 71.875 15.9668 49.4141 15.9668C26.9531 15.9668 11.1328-5.12695 11.1328-35.2539C11.1328-65.3809 26.9531-86.5234 49.4141-86.5234Z"/>
  </g>
  <g id="Black-S" transform="matrix(1 0 0 1 2887.72 696)">
   <path d="M45.7031-84.2285C22.8516-84.2285 6.83594-63.8672 6.83594-35.2539C6.83594-6.64062 22.8516 13.7207 45.7031 13.7207C68.5547 13.7207 84.5215-6.64062 84.5215-35.2539C84.5215-63.8672 68.5547-84.2285 45.7031-84.2285ZM45.7031-68.457C59.2285-68.457 68.75-54.9805 68.75-35.2539C68.75-15.5273 59.2285-2.05078 45.7031-2.05078C32.1289-2.05078 22.6074-15.5273 22.6074-35.2539C22.6074-54.9805 32.1289-68.457 45.7031-68.457Z"/>
  </g>
  <g id="Heavy-S" transform="matrix(1 0 0 1 2591.69 696)">
   <path d="M45.0195-83.6426C22.5586-83.6426 6.83594-63.5742 6.83594-35.2539C6.83594-6.93359 22.5586 13.1348 45.0195 13.1348C67.4805 13.1348 83.1543-6.93359 83.1543-35.2539C83.1543-63.5742 67.4805-83.6426 45.0195-83.6426ZM45.0195-69.9707C59.375-69.9707 69.4336-55.8105 69.4336-35.2539C69.4336-14.6973 59.375-0.537109 45.0195-0.537109C30.6152-0.537109 20.5566-14.6973 20.5566-35.2539C20.5566-55.8105 30.6152-69.9707 45.0195-69.9707Z"/>
  </g>
  <g id="Bold-S" transform="matrix(1 0 0 1 2295.76 696)">
   <path d="M44.2383-83.0078C22.2168-83.0078 6.83594-63.2324 6.83594-35.2539C6.83594-7.27539 22.2168 12.5 44.2383 12.5C66.3086 12.5 81.5918-7.27539 81.5918-35.2539C81.5918-63.2324 66.3086-83.0078 44.2383-83.0078ZM44.2383-71.6309C59.5703-71.6309 70.2148-56.6895 70.2148-35.2539C70.2148-13.8184 59.5703 1.12305 44.2383 1.12305C28.9062 1.12305 18.2617-13.8184 18.2617-35.2539C18.2617-56.6895 28.9062-71.6309 44.2383-71.6309Z"/>
  </g>
  <g id="Semibold-S" transform="matrix(1 0 0 1 1999.57 696)">
   <path d="M43.7012-82.6172C21.9727-82.6172 6.83594-62.9883 6.83594-35.2539C6.83594-7.51953 21.9727 12.1094 43.7012 12.1094C65.4785 12.1094 80.5664-7.51953 80.5664-35.2539C80.5664-62.9883 65.4785-82.6172 43.7012-82.6172ZM43.7012-72.7539C59.7168-72.7539 70.752-57.3242 70.752-35.2539C70.752-13.1836 59.7168 2.24609 43.7012 2.24609C27.7344 2.24609 16.6504-13.1836 16.6504-35.2539C16.6504-57.3242 27.7344-72.7539 43.7012-72.7539Z"/>
  </g>
  <g id="Medium-S" transform="matrix(1 0 0 1 1703.27 696)">
   <path d="M43.3105-82.2754C21.7773-82.2754 6.83594-62.793 6.83594-35.2539C6.83594-7.71484 21.7773 11.7676 43.3105 11.7676C64.8438 11.7676 79.7363-7.71484 79.7363-35.2539C79.7363-62.793 64.8438-82.2754 43.3105-82.2754ZM43.3105-73.6328C59.7656-73.6328 71.1426-57.8125 71.1426-35.2539C71.1426-12.6953 59.7656 3.125 43.3105 3.125C26.8555 3.125 15.4297-12.6953 15.4297-35.2539C15.4297-57.8125 26.8555-73.6328 43.3105-73.6328Z"/>
  </g>
  <g id="Regular-S" transform="matrix(1 0 0 1 1407.07 696)">
   <path d="M42.7734-81.8359C21.5332-81.8359 6.83594-62.5488 6.83594-35.2539C6.83594-7.95898 21.5332 11.3281 42.7734 11.3281C64.0625 11.3281 78.7109-7.95898 78.7109-35.2539C78.7109-62.5488 64.0625-81.8359 42.7734-81.8359ZM42.7734-74.8047C59.9121-74.8047 71.6797-58.4473 71.6797-35.2539C71.6797-12.0605 59.9121 4.29688 42.7734 4.29688C25.6836 4.29688 13.8672-12.1094 13.8672-35.2539C13.8672-58.3984 25.6836-74.8047 42.7734-74.8047Z"/>
  </g>
  <g id="Light-S" transform="matrix(1 0 0 1 1111.63 696)">
   <path d="M41.5039-80.4199C21.0449-80.4199 6.83594-61.7676 6.83594-35.2539C6.83594-8.74023 21.0449 9.91211 41.5039 9.91211C62.0117 9.91211 76.1719-8.74023 76.1719-35.2539C76.1719-61.7676 62.0117-80.4199 41.5039-80.4199ZM41.5039-75C58.7891-75 70.752-58.5938 70.752-35.2539C70.752-11.9141 58.7891 4.49219 41.5039 4.49219C24.2676 4.49219 12.2559-11.9629 12.2559-35.2539C12.2559-58.5449 24.2676-75 41.5039-75Z"/>
  </g>
  <g id="Thin-S" transform="matrix(1 0 0 1 816.603 696)">
   <path d="M39.8438-78.5156C20.3613-78.5156 6.83594-60.6934 6.83594-35.2539C6.83594-9.81445 20.3613 8.00781 39.8438 8.00781C59.375 8.00781 72.8027-9.76562 72.8027-35.2539C72.8027-60.7422 59.375-78.5156 39.8438-78.5156ZM39.8438-75.2441C57.2754-75.2441 69.5312-58.7402 69.5312-35.2539C69.5312-11.7676 57.2754 4.73633 39.8438 4.73633C22.3633 4.73633 10.1562-11.7676 10.1562-35.2539C10.1562-58.7402 22.3633-75.2441 39.8438-75.2441Z"/>
  </g>
  <g id="Ultralight-S" transform="matrix(1 0 0 1 520.746 696)">
   <path d="M38.9648-77.5879C20.0195-77.5879 6.83594-60.1562 6.83594-35.2539C6.83594-10.3516 20.0195 7.08008 38.9648 7.08008C57.959 7.08008 71.0938-10.3027 71.0938-35.2539C71.0938-60.2051 57.959-77.5879 38.9648-77.5879ZM38.9648-75.3418C56.543-75.3418 68.8965-58.8867 68.8965-35.2539C68.8965-11.6211 56.543 4.83398 38.9648 4.83398C21.4355 4.83398 9.0332-11.6699 9.0332-35.2539C9.0332-58.8379 21.4355-75.3418 38.9648-75.3418Z"/>
  </g>
 </g>
</svg>
