<?xml version="1.0" encoding="UTF-8"?>
<!--Generator: Apple Native CoreSVG 149-->
<!DOCTYPE svg
PUBLIC "-//W3C//DTD SVG 1.1//EN"
       "http://www.w3.org/Graphics/SVG/1.1/DTD/svg11.dtd">
<svg version="1.1" xmlns="http://www.w3.org/2000/svg" xmlns:xlink="http://www.w3.org/1999/xlink" width="3300" height="2200">
 <!--glyph: "uni1007CF.medium", point size: 100.000000, font version: "Version 16.0d18e1", template writer version: "8"-->
 <g id="Notes">
  <rect height="2200" id="artboard" style="fill:white;opacity:1" width="3300" x="0" y="0"/>
  <line id="" style="fill:none;stroke:black;opacity:1;stroke-width:0.5;" x1="263" x2="3036" y1="292" y2="292"/>
  <text style="stroke:none;fill:black;font-family:-apple-system,&quot;SF Pro Display&quot;,&quot;SF Pro Text&quot;,Helvetica,sans-serif;font-weight:bold;" transform="matrix(1 0 0 1 263 322)">Weight/Scale Variations</text>
  <text style="stroke:none;fill:black;font-family:-apple-system,&quot;SF Pro Display&quot;,&quot;SF Pro Text&quot;,Helvetica,sans-serif;text-anchor:middle;" transform="matrix(1 0 0 1 559.711 322)">Ultralight</text>
  <text style="stroke:none;fill:black;font-family:-apple-system,&quot;SF Pro Display&quot;,&quot;SF Pro Text&quot;,Helvetica,sans-serif;text-anchor:middle;" transform="matrix(1 0 0 1 856.422 322)">Thin</text>
  <text style="stroke:none;fill:black;font-family:-apple-system,&quot;SF Pro Display&quot;,&quot;SF Pro Text&quot;,Helvetica,sans-serif;text-anchor:middle;" transform="matrix(1 0 0 1 1153.13 322)">Light</text>
  <text style="stroke:none;fill:black;font-family:-apple-system,&quot;SF Pro Display&quot;,&quot;SF Pro Text&quot;,Helvetica,sans-serif;text-anchor:middle;" transform="matrix(1 0 0 1 1449.84 322)">Regular</text>
  <text style="stroke:none;fill:black;font-family:-apple-system,&quot;SF Pro Display&quot;,&quot;SF Pro Text&quot;,Helvetica,sans-serif;text-anchor:middle;" transform="matrix(1 0 0 1 1746.56 322)">Medium</text>
  <text style="stroke:none;fill:black;font-family:-apple-system,&quot;SF Pro Display&quot;,&quot;SF Pro Text&quot;,Helvetica,sans-serif;text-anchor:middle;" transform="matrix(1 0 0 1 2043.27 322)">Semibold</text>
  <text style="stroke:none;fill:black;font-family:-apple-system,&quot;SF Pro Display&quot;,&quot;SF Pro Text&quot;,Helvetica,sans-serif;text-anchor:middle;" transform="matrix(1 0 0 1 2339.98 322)">Bold</text>
  <text style="stroke:none;fill:black;font-family:-apple-system,&quot;SF Pro Display&quot;,&quot;SF Pro Text&quot;,Helvetica,sans-serif;text-anchor:middle;" transform="matrix(1 0 0 1 2636.69 322)">Heavy</text>
  <text style="stroke:none;fill:black;font-family:-apple-system,&quot;SF Pro Display&quot;,&quot;SF Pro Text&quot;,Helvetica,sans-serif;text-anchor:middle;" transform="matrix(1 0 0 1 2933.4 322)">Black</text>
  <line id="" style="fill:none;stroke:black;opacity:1;stroke-width:0.5;" x1="263" x2="3036" y1="1903" y2="1903"/>
  <g id="" transform="matrix(1 0 0 1 263 1933)">
   <path d="M9.24805 0.830078C13.5547 0.830078 17.1387-2.74414 17.1387-7.05078C17.1387-11.3574 13.5449-14.9316 9.23828-14.9316C4.94141-14.9316 1.36719-11.3574 1.36719-7.05078C1.36719-2.74414 4.95117 0.830078 9.24805 0.830078ZM9.24805-0.654297C5.70312-0.654297 2.87109-3.49609 2.87109-7.05078C2.87109-10.6055 5.69336-13.4473 9.23828-13.4473C12.793-13.4473 15.6348-10.6055 15.6445-7.05078C15.6543-3.49609 12.8027-0.654297 9.24805-0.654297ZM6.39648-6.31836L8.50586-6.31836L8.50586-4.19922C8.50586-3.75977 8.79883-3.45703 9.22852-3.45703C9.67773-3.45703 9.9707-3.75977 9.9707-4.19922L9.9707-6.31836L12.0996-6.31836C12.5391-6.31836 12.8418-6.61133 12.8418-7.04102C12.8418-7.48047 12.5391-7.7832 12.0996-7.7832L9.9707-7.7832L9.9707-9.89258C9.9707-10.3418 9.67773-10.6445 9.22852-10.6445C8.79883-10.6445 8.50586-10.3418 8.50586-9.89258L8.50586-7.7832L6.39648-7.7832C5.94727-7.7832 5.64453-7.48047 5.64453-7.04102C5.64453-6.61133 5.94727-6.31836 6.39648-6.31836Z"/>
  </g>
  <g id="" transform="matrix(1 0 0 1 281.506 1933)">
   <path d="M11.709 2.91016C17.1582 2.91016 21.6699-1.61133 21.6699-7.05078C21.6699-12.5 17.1484-17.0117 11.6992-17.0117C6.25977-17.0117 1.74805-12.5 1.74805-7.05078C1.74805-1.61133 6.26953 2.91016 11.709 2.91016ZM11.709 1.25C7.09961 1.25 3.41797-2.44141 3.41797-7.05078C3.41797-11.6602 7.08984-15.3516 11.6992-15.3516C16.3086-15.3516 20-11.6602 20.0098-7.05078C20.0195-2.44141 16.3184 1.25 11.709 1.25ZM7.98828-6.23047L10.8789-6.23047L10.8789-3.32031C10.8789-2.83203 11.2109-2.5 11.6895-2.5C12.1777-2.5 12.5195-2.83203 12.5195-3.32031L12.5195-6.23047L15.4297-6.23047C15.918-6.23047 16.25-6.5625 16.25-7.04102C16.25-7.5293 15.918-7.87109 15.4297-7.87109L12.5195-7.87109L12.5195-10.7617C12.5195-11.2695 12.1777-11.6016 11.6895-11.6016C11.2109-11.6016 10.8789-11.2598 10.8789-10.7617L10.8789-7.87109L7.98828-7.87109C7.48047-7.87109 7.14844-7.5293 7.14844-7.04102C7.14844-6.5625 7.49023-6.23047 7.98828-6.23047Z"/>
  </g>
  <g id="" transform="matrix(1 0 0 1 304.924 1933)">
   <path d="M14.9707 5.66406C21.9336 5.66406 27.6953-0.0976562 27.6953-7.05078C27.6953-14.0137 21.9238-19.7754 14.9609-19.7754C8.00781-19.7754 2.25586-14.0137 2.25586-7.05078C2.25586-0.0976562 8.01758 5.66406 14.9707 5.66406ZM14.9707 3.84766C8.93555 3.84766 4.08203-1.01562 4.08203-7.05078C4.08203-13.0957 8.92578-17.9492 14.9609-17.9492C21.0059-17.9492 25.8594-13.0957 25.8691-7.05078C25.8789-1.01562 21.0156 3.84766 14.9707 3.84766ZM10.0586-6.14258L14.0625-6.14258L14.0625-2.12891C14.0625-1.5918 14.4336-1.2207 14.9512-1.2207C15.4883-1.2207 15.8594-1.5918 15.8594-2.12891L15.8594-6.14258L19.8828-6.14258C20.4102-6.14258 20.791-6.51367 20.791-7.03125C20.791-7.56836 20.4199-7.94922 19.8828-7.94922L15.8594-7.94922L15.8594-11.9531C15.8594-12.5098 15.4883-12.8809 14.9512-12.8809C14.4336-12.8809 14.0625-12.5 14.0625-11.9531L14.0625-7.94922L10.0586-7.94922C9.50195-7.94922 9.13086-7.56836 9.13086-7.03125C9.13086-6.51367 9.51172-6.14258 10.0586-6.14258Z"/>
  </g>
  <text style="stroke:none;fill:black;font-family:-apple-system,&quot;SF Pro Display&quot;,&quot;SF Pro Text&quot;,Helvetica,sans-serif;font-weight:bold;" transform="matrix(1 0 0 1 263 1953)">Design Variations</text>
  <text style="stroke:none;fill:black;font-family:-apple-system,&quot;SF Pro Display&quot;,&quot;SF Pro Text&quot;,Helvetica,sans-serif;" transform="matrix(1 0 0 1 263 1971)">Symbols are supported in up to nine weights and three scales.</text>
  <text style="stroke:none;fill:black;font-family:-apple-system,&quot;SF Pro Display&quot;,&quot;SF Pro Text&quot;,Helvetica,sans-serif;" transform="matrix(1 0 0 1 263 1989)">For optimal layout with text and other symbols, vertically align</text>
  <text style="stroke:none;fill:black;font-family:-apple-system,&quot;SF Pro Display&quot;,&quot;SF Pro Text&quot;,Helvetica,sans-serif;" transform="matrix(1 0 0 1 263 2007)">symbols with the adjacent text.</text>
  <line id="" style="fill:none;stroke:#00AEEF;stroke-width:0.5;opacity:1.0;" x1="776" x2="776" y1="1919" y2="1933"/>
  <g id="" transform="matrix(1 0 0 1 776 1933)">
   <path d="M3.31055 0.126953C3.82812 0.126953 4.08203-0.0683594 4.26758-0.605469L5.52734-4.0625L11.2891-4.0625L12.5488-0.605469C12.7344-0.0683594 12.9883 0.126953 13.4961 0.126953C14.0137 0.126953 14.3457-0.185547 14.3457-0.673828C14.3457-0.839844 14.3164-0.986328 14.2383-1.20117L9.6582-13.3887C9.43359-13.9941 9.0332-14.2871 8.4082-14.2871C7.80273-14.2871 7.39258-13.9941 7.17773-13.3984L2.59766-1.19141C2.51953-0.976562 2.49023-0.830078 2.49023-0.664062C2.49023-0.175781 2.80273 0.126953 3.31055 0.126953ZM6.00586-5.53711L8.37891-12.1094L8.42773-12.1094L10.8008-5.53711Z"/>
  </g>
  <line id="" style="fill:none;stroke:#00AEEF;stroke-width:0.5;opacity:1.0;" x1="792.836" x2="792.836" y1="1919" y2="1933"/>
  <text style="stroke:none;fill:black;font-family:-apple-system,&quot;SF Pro Display&quot;,&quot;SF Pro Text&quot;,Helvetica,sans-serif;font-weight:bold;" transform="matrix(1 0 0 1 776 1953)">Margins</text>
  <text style="stroke:none;fill:black;font-family:-apple-system,&quot;SF Pro Display&quot;,&quot;SF Pro Text&quot;,Helvetica,sans-serif;" transform="matrix(1 0 0 1 776 1971)">Leading and trailing margins on the left and right side of each symbol</text>
  <text style="stroke:none;fill:black;font-family:-apple-system,&quot;SF Pro Display&quot;,&quot;SF Pro Text&quot;,Helvetica,sans-serif;" transform="matrix(1 0 0 1 776 1989)">can be adjusted by modifying the x-location of the margin guidelines.</text>
  <text style="stroke:none;fill:black;font-family:-apple-system,&quot;SF Pro Display&quot;,&quot;SF Pro Text&quot;,Helvetica,sans-serif;" transform="matrix(1 0 0 1 776 2007)">Modifications are automatically applied proportionally to all</text>
  <text style="stroke:none;fill:black;font-family:-apple-system,&quot;SF Pro Display&quot;,&quot;SF Pro Text&quot;,Helvetica,sans-serif;" transform="matrix(1 0 0 1 776 2025)">scales and weights.</text>
  <g id="" transform="matrix(1 0 0 1 1289 1933)">
   <path d="M2.8418 1.86523L4.54102 3.57422C5.40039 4.44336 6.38672 4.38477 7.31445 3.35938L17.4902-7.85156C17.7539-7.76367 18.0273-7.7832 18.3398-7.8418L19.4043-8.03711L20.0684-7.36328L20.0293-6.80664C19.9902-6.30859 20.1172-5.92773 20.6055-5.44922L21.3672-4.70703C21.8457-4.22852 22.4609-4.19922 22.9297-4.66797L25.8398-7.58789C26.3086-8.05664 26.2891-8.65234 25.8105-9.13086L25.0391-9.89258C24.5605-10.3711 24.1895-10.5273 23.7109-10.4883L23.1348-10.4395L22.4902-11.0742L22.7344-12.1973C22.8613-12.7637 22.7051-13.2031 22.1191-13.7891L19.9219-15.9766C16.582-19.2969 12.1484-19.2188 9.25781-16.3281C8.83789-15.918 8.80859-15.3418 9.04297-14.9512C9.27734-14.5898 9.73633-14.3555 10.3809-14.5215C11.8457-14.8633 13.3691-14.9219 14.7949-13.9844L14.209-12.5293C14.0137-12.0508 13.9844-11.6504 14.1113-11.2891L3.04688-0.898438C2.06055 0.0195312 1.98242 0.996094 2.8418 1.86523ZM10.752-15.957C13.1836-17.7344 16.4746-17.4316 18.7012-15.2051L21.1328-12.793C21.3672-12.5586 21.4062-12.373 21.3379-12.0312L21.0156-10.5469L22.5195-9.0625L23.5059-9.12109C23.7598-9.13086 23.8379-9.11133 24.0332-8.91602L24.6094-8.33984L22.168-5.89844L21.5918-6.47461C21.3965-6.66992 21.3672-6.74805 21.377-7.01172L21.4453-7.98828L19.9512-9.47266L18.4277-9.21875C18.1055-9.15039 17.959-9.17969 17.7148-9.41406L15.7129-11.416C15.459-11.6504 15.4297-11.8164 15.5859-12.1875L16.4648-14.2773C14.9023-15.7324 12.8711-16.3574 10.8398-15.7617C10.6836-15.7227 10.625-15.8496 10.752-15.957ZM5.27344 2.30469L4.10156 1.14258C3.63281 0.683594 3.74023 0.341797 4.14062-0.0195312L14.9512-10.1953L16.416-8.71094L6.42578 2.27539C6.07422 2.67578 5.74219 2.77344 5.27344 2.30469Z"/>
  </g>
  <text style="stroke:none;fill:black;font-family:-apple-system,&quot;SF Pro Display&quot;,&quot;SF Pro Text&quot;,Helvetica,sans-serif;font-weight:bold;" transform="matrix(1 0 0 1 1289 1953)">Exporting</text>
  <text style="stroke:none;fill:black;font-family:-apple-system,&quot;SF Pro Display&quot;,&quot;SF Pro Text&quot;,Helvetica,sans-serif;" transform="matrix(1 0 0 1 1289 1971)">Symbols should be outlined when exporting to ensure the</text>
  <text style="stroke:none;fill:black;font-family:-apple-system,&quot;SF Pro Display&quot;,&quot;SF Pro Text&quot;,Helvetica,sans-serif;" transform="matrix(1 0 0 1 1289 1989)">design is preserved when submitting to Xcode.</text>
  <text id="template-version" style="stroke:none;fill:black;font-family:-apple-system,&quot;SF Pro Display&quot;,&quot;SF Pro Text&quot;,Helvetica,sans-serif;text-anchor:end;" transform="matrix(1 0 0 1 3036 1933)">Template v.2.0</text>
  <text style="stroke:none;fill:black;font-family:-apple-system,&quot;SF Pro Display&quot;,&quot;SF Pro Text&quot;,Helvetica,sans-serif;text-anchor:end;" transform="matrix(1 0 0 1 3036 1951)">Requires Xcode 12 or greater</text>
  <text style="stroke:none;fill:black;font-family:-apple-system,&quot;SF Pro Display&quot;,&quot;SF Pro Text&quot;,Helvetica,sans-serif;text-anchor:end;" transform="matrix(1 0 0 1 3036 1969)">Generated from rectangle.portrait</text>
  <text style="stroke:none;fill:black;font-family:-apple-system,&quot;SF Pro Display&quot;,&quot;SF Pro Text&quot;,Helvetica,sans-serif;text-anchor:end;" transform="matrix(1 0 0 1 3036 1987)">Typeset at 100 points</text>
  <text style="stroke:none;fill:black;font-family:-apple-system,&quot;SF Pro Display&quot;,&quot;SF Pro Text&quot;,Helvetica,sans-serif;" transform="matrix(1 0 0 1 263 726)">Small</text>
  <text style="stroke:none;fill:black;font-family:-apple-system,&quot;SF Pro Display&quot;,&quot;SF Pro Text&quot;,Helvetica,sans-serif;" transform="matrix(1 0 0 1 263 1156)">Medium</text>
  <text style="stroke:none;fill:black;font-family:-apple-system,&quot;SF Pro Display&quot;,&quot;SF Pro Text&quot;,Helvetica,sans-serif;" transform="matrix(1 0 0 1 263 1586)">Large</text>
 </g>
 <g id="Guides">
  <g id="H-reference" style="fill:#27AAE1;stroke:none;" transform="matrix(1 0 0 1 339 696)">
   <path d="M0.976562 0L3.66211 0L12.9883-24.4629L45.752-24.4629L55.127 0L57.7637 0L30.6152-70.459L28.125-70.459ZM29.3457-67.1387L29.4434-67.1387L44.873-26.709L13.8672-26.709Z"/>
  </g>
  <line id="Baseline-S" style="fill:none;stroke:#27AAE1;opacity:1;stroke-width:0.5;" x1="263" x2="3036" y1="696" y2="696"/>
  <line id="Capline-S" style="fill:none;stroke:#27AAE1;opacity:1;stroke-width:0.5;" x1="263" x2="3036" y1="625.541" y2="625.541"/>
  <g id="H-reference" style="fill:#27AAE1;stroke:none;" transform="matrix(1 0 0 1 339 1126)">
   <path d="M0.976562 0L3.66211 0L12.9883-24.4629L45.752-24.4629L55.127 0L57.7637 0L30.6152-70.459L28.125-70.459ZM29.3457-67.1387L29.4434-67.1387L44.873-26.709L13.8672-26.709Z"/>
  </g>
  <line id="Baseline-M" style="fill:none;stroke:#27AAE1;opacity:1;stroke-width:0.5;" x1="263" x2="3036" y1="1126" y2="1126"/>
  <line id="Capline-M" style="fill:none;stroke:#27AAE1;opacity:1;stroke-width:0.5;" x1="263" x2="3036" y1="1055.54" y2="1055.54"/>
  <g id="H-reference" style="fill:#27AAE1;stroke:none;" transform="matrix(1 0 0 1 339 1556)">
   <path d="M0.976562 0L3.66211 0L12.9883-24.4629L45.752-24.4629L55.127 0L57.7637 0L30.6152-70.459L28.125-70.459ZM29.3457-67.1387L29.4434-67.1387L44.873-26.709L13.8672-26.709Z"/>
  </g>
  <line id="Baseline-L" style="fill:none;stroke:#27AAE1;opacity:1;stroke-width:0.5;" x1="263" x2="3036" y1="1556" y2="1556"/>
  <line id="Capline-L" style="fill:none;stroke:#27AAE1;opacity:1;stroke-width:0.5;" x1="263" x2="3036" y1="1485.54" y2="1485.54"/>
  <line id="left-margin" style="fill:none;stroke:#00AEEF;stroke-width:0.5;opacity:1.0;" x1="1396.33" x2="1396.33" y1="1030.79" y2="1150.12"/>
  <line id="right-margin" style="fill:none;stroke:#00AEEF;stroke-width:0.5;opacity:1.0;" x1="1503.36" x2="1503.36" y1="1030.79" y2="1150.12"/>
 </g>
 <g id="Symbols">
  <g id="Black-L" transform="matrix(1 0 0 1 2859.65 1556)">
   <path d="M16.0645 11.3281C16.0645 26.5625 24.707 35.2539 39.8926 35.2539L107.617 35.2539C122.803 35.2539 131.445 26.5625 131.445 11.3281L131.445-81.7383C131.445-96.9727 122.803-105.664 107.617-105.664L39.8926-105.664C24.707-105.664 16.0645-96.9727 16.0645-81.7383ZM36.3281 8.59375L36.3281-79.0039C36.3281-83.252 38.1836-85.4004 42.7246-85.4004L104.785-85.4004C109.326-85.4004 111.23-83.252 111.23-79.0039L111.23 8.59375C111.23 12.8418 109.326 14.9902 104.785 14.9902L42.7246 14.9902C38.1836 14.9902 36.3281 12.8418 36.3281 8.59375Z"/>
  </g>
  <g id="Heavy-L" transform="matrix(1 0 0 1 2564.18 1556)">
   <path d="M16.0645 11.7188C16.0645 26.3672 24.1211 34.4727 38.7207 34.4727L106.348 34.4727C120.898 34.4727 128.955 26.3672 128.955 11.7188L128.955-82.1777C128.955-96.7773 120.898-104.932 106.348-104.932L38.7207-104.932C24.1211-104.932 16.0645-96.7773 16.0645-82.1777ZM33.5938 9.61914L33.5938-80.0293C33.5938-84.8633 35.8887-87.4023 41.0156-87.4023L104.053-87.4023C109.18-87.4023 111.475-84.8633 111.475-80.0293L111.475 9.61914C111.475 14.4531 109.18 16.9922 104.053 16.9922L41.0156 16.9922C35.8887 16.9922 33.5938 14.4531 33.5938 9.61914Z"/>
  </g>
  <g id="Bold-L" transform="matrix(1 0 0 1 2268.86 1556)">
   <path d="M16.0645 12.207C16.0645 26.123 23.5352 33.6426 37.4023 33.6426L104.883 33.6426C118.701 33.6426 126.172 26.123 126.172 12.207L126.172-82.6172C126.172-96.5332 118.701-104.053 104.883-104.053L37.4023-104.053C23.5352-104.053 16.0645-96.5332 16.0645-82.6172ZM30.5176 10.7422L30.5176-81.1523C30.5176-86.6699 33.252-89.6484 39.0625-89.6484L103.223-89.6484C108.984-89.6484 111.719-86.6699 111.719-81.1523L111.719 10.7422C111.719 16.2598 108.984 19.1895 103.223 19.1895L39.0625 19.1895C33.252 19.1895 30.5176 16.2598 30.5176 10.7422Z"/>
  </g>
  <g id="Semibold-L" transform="matrix(1 0 0 1 1973.1 1556)">
   <path d="M16.0645 12.5C16.0645 25.9766 23.0957 33.0566 36.4746 33.0566L103.857 33.0566C117.188 33.0566 124.268 25.9766 124.268 12.5L124.268-82.9102C124.268-96.3867 117.188-103.516 103.857-103.516L36.4746-103.516C23.0957-103.516 16.0645-96.3867 16.0645-82.9102ZM28.418 11.5234L28.418-81.9336C28.418-87.9395 31.4453-91.1621 37.6953-91.1621L102.637-91.1621C108.838-91.1621 111.914-87.9395 111.914-81.9336L111.914 11.5234C111.914 17.5293 108.838 20.752 102.637 20.752L37.6953 20.752C31.4453 20.752 28.418 17.5293 28.418 11.5234Z"/>
  </g>
  <g id="Medium-L" transform="matrix(1 0 0 1 1677.12 1556)">
   <path d="M16.0645 12.7441C16.0645 25.8789 22.8027 32.666 35.791 32.666L103.076 32.666C116.064 32.666 122.803 25.8789 122.803 12.7441L122.803-83.1543C122.803-96.2402 116.064-103.076 103.076-103.076L35.791-103.076C22.8027-103.076 16.0645-96.2402 16.0645-83.1543ZM26.8066 12.1094L26.8066-82.5684C26.8066-88.8672 30.127-92.334 36.6699-92.334L102.197-92.334C108.74-92.334 112.061-88.8672 112.061-82.5684L112.061 12.1094C112.061 18.457 108.74 21.9238 102.197 21.9238L36.6699 21.9238C30.127 21.9238 26.8066 18.457 26.8066 12.1094Z"/>
  </g>
  <g id="Regular-L" transform="matrix(1 0 0 1 1381.36 1556)">
   <path d="M16.0645 13.0859C16.0645 25.6836 22.3633 32.0801 34.8633 32.0801L102.1 32.0801C114.6 32.0801 120.898 25.6836 120.898 13.0859L120.898-83.4961C120.898-96.0938 114.6-102.49 102.1-102.49L34.8633-102.49C22.3633-102.49 16.0645-96.0938 16.0645-83.4961ZM24.707 12.8906L24.707-83.3008C24.707-90.1367 28.3203-93.8477 35.3516-93.8477L101.611-93.8477C108.643-93.8477 112.256-90.1367 112.256-83.3008L112.256 12.8906C112.256 19.7266 108.643 23.4375 101.611 23.4375L35.3516 23.4375C28.3203 23.4375 24.707 19.7266 24.707 12.8906Z"/>
  </g>
  <g id="Light-L" transform="matrix(1 0 0 1 1085.43 1556)">
   <path d="M16.0645 13.7695C16.0645 25.6836 22.1191 31.7871 33.9355 31.7871L101.514 31.7871C113.281 31.7871 119.336 25.6836 119.336 13.7695L119.336-84.1309C119.336-95.9961 113.281-102.1 101.514-102.1L33.9355-102.1C22.1191-102.1 16.0645-95.9961 16.0645-84.1309ZM22.7051 13.623L22.7051-83.9844C22.7051-91.4551 26.6113-95.5078 34.2773-95.5078L101.172-95.5078C108.789-95.5078 112.744-91.4551 112.744-83.9844L112.744 13.623C112.744 21.1426 108.789 25.1465 101.172 25.1465L34.2773 25.1465C26.6113 25.1465 22.7051 21.1426 22.7051 13.623Z"/>
  </g>
  <g id="Thin-L" transform="matrix(1 0 0 1 789.747 1556)">
   <path d="M16.0645 14.7461C16.0645 25.6348 21.7773 31.3477 32.666 31.3477L100.732 31.3477C111.572 31.3477 117.285 25.6348 117.285 14.7461L117.285-84.9609C117.285-95.8496 111.572-101.611 100.732-101.611L32.666-101.611C21.7773-101.611 16.0645-95.8496 16.0645-84.9609ZM19.9707 14.5996L19.9707-84.8145C19.9707-93.2617 24.3652-97.6562 32.8613-97.6562L100.537-97.6562C108.984-97.6562 113.379-93.2617 113.379-84.8145L113.379 14.5996C113.379 22.998 108.984 27.4414 100.537 27.4414L32.8613 27.4414C24.3652 27.4414 19.9707 22.998 19.9707 14.5996Z"/>
  </g>
  <g id="Ultralight-L" transform="matrix(1 0 0 1 493.549 1556)">
   <path d="M16.0645 15.2344C16.0645 25.5859 21.6309 31.1523 31.9824 31.1523L100.293 31.1523C110.693 31.1523 116.26 25.5859 116.26 15.2344L116.26-85.4004C116.26-95.8008 110.693-101.318 100.293-101.318L31.9824-101.318C21.6309-101.318 16.0645-95.8008 16.0645-85.4004ZM18.6035 15.0879L18.6035-85.2539C18.6035-94.1895 23.2422-98.7793 32.1289-98.7793L100.195-98.7793C109.082-98.7793 113.672-94.1895 113.672-85.2539L113.672 15.0879C113.672 23.9746 109.082 28.5645 100.195 28.5645L32.1289 28.5645C23.2422 28.5645 18.6035 23.9746 18.6035 15.0879Z"/>
  </g>
  <g id="Black-M" transform="matrix(1 0 0 1 2874.98 1126)">
   <path d="M12.4512 0.683594C12.4512 12.9395 19.7266 20.2148 31.9824 20.2148L84.8633 20.2148C97.1191 20.2148 104.395 12.9395 104.395 0.683594L104.395-71.0938C104.395-83.3496 97.1191-90.625 84.8633-90.625L31.9824-90.625C19.7266-90.625 12.4512-83.3496 12.4512-71.0938ZM30.7617-2.24609L30.7617-68.1641C30.7617-70.9961 31.8359-72.3145 34.9121-72.3145L81.9336-72.3145C85.0098-72.3145 86.1328-70.9961 86.1328-68.1641L86.1328-2.24609C86.1328 0.585938 85.0098 1.9043 81.9336 1.9043L34.9121 1.9043C31.8359 1.9043 30.7617 0.585938 30.7617-2.24609Z"/>
  </g>
  <g id="Heavy-M" transform="matrix(1 0 0 1 2579.41 1126)">
   <path d="M12.4512 0.927734C12.4512 12.7441 19.1895 19.4824 30.957 19.4824L83.5938 19.4824C95.3125 19.4824 102.1 12.7441 102.1 0.927734L102.1-71.3379C102.1-83.1055 95.3125-89.8926 83.5938-89.8926L30.957-89.8926C19.1895-89.8926 12.4512-83.1055 12.4512-71.3379ZM28.2715-1.31836L28.2715-69.0918C28.2715-72.4121 29.7363-74.0723 33.3008-74.0723L81.25-74.0723C84.8145-74.0723 86.2793-72.4121 86.2793-69.0918L86.2793-1.31836C86.2793 2.00195 84.8145 3.66211 81.25 3.66211L33.3008 3.66211C29.7363 3.66211 28.2715 2.00195 28.2715-1.31836Z"/>
  </g>
  <g id="Bold-M" transform="matrix(1 0 0 1 2284 1126)">
   <path d="M12.4512 1.2207C12.4512 12.5 18.6035 18.6523 29.7852 18.6523L82.1777 18.6523C93.3105 18.6523 99.5117 12.5 99.5117 1.2207L99.5117-71.6797C99.5117-82.8613 93.3105-89.1113 82.1777-89.1113L29.7852-89.1113C18.6035-89.1113 12.4512-82.8613 12.4512-71.6797ZM25.5371-0.292969L25.5371-70.1172C25.5371-73.9746 27.3926-76.0254 31.4453-76.0254L80.4688-76.0254C84.5703-76.0254 86.4258-73.9746 86.4258-70.1172L86.4258-0.292969C86.4258 3.56445 84.5703 5.56641 80.4688 5.56641L31.4453 5.56641C27.3926 5.56641 25.5371 3.56445 25.5371-0.292969Z"/>
  </g>
  <g id="Semibold-M" transform="matrix(1 0 0 1 1988.19 1126)">
   <path d="M12.4512 1.41602C12.4512 12.3047 18.2129 18.1152 29.0039 18.1152L81.1523 18.1152C91.9434 18.1152 97.7051 12.3047 97.7051 1.41602L97.7051-71.875C97.7051-82.7148 91.9434-88.5254 81.1523-88.5254L29.0039-88.5254C18.2129-88.5254 12.4512-82.7148 12.4512-71.875ZM23.6328 0.439453L23.6328-70.8496C23.6328-75.0977 25.7324-77.3438 30.1758-77.3438L79.9805-77.3438C84.375-77.3438 86.5234-75.0977 86.5234-70.8496L86.5234 0.439453C86.5234 4.63867 84.375 6.93359 79.9805 6.93359L30.1758 6.93359C25.7324 6.93359 23.6328 4.63867 23.6328 0.439453Z"/>
  </g>
  <g id="Medium-M" transform="matrix(1 0 0 1 1692.16 1126)">
   <path d="M12.4512 1.61133C12.4512 12.1582 17.9199 17.6758 28.3691 17.6758L80.4199 17.6758C90.918 17.6758 96.3379 12.1582 96.3379 1.61133L96.3379-72.0215C96.3379-82.6172 90.918-88.1348 80.4199-88.1348L28.3691-88.1348C17.9199-88.1348 12.4512-82.6172 12.4512-72.0215ZM22.168 0.976562L22.168-71.4355C22.168-75.9277 24.5117-78.3691 29.248-78.3691L79.541-78.3691C84.2773-78.3691 86.6211-75.9277 86.6211-71.4355L86.6211 0.976562C86.6211 5.46875 84.2773 7.91016 79.541 7.91016L29.248 7.91016C24.5117 7.91016 22.168 5.46875 22.168 0.976562Z"/>
  </g>
  <g id="Regular-M" transform="matrix(1 0 0 1 1396.33 1126)">
   <path d="M12.4512 1.80664C12.4512 12.0117 17.4805 17.0898 27.5879 17.0898L79.4434 17.0898C89.5508 17.0898 94.5801 12.0117 94.5801 1.80664L94.5801-72.2656C94.5801-82.4219 89.5508-87.5977 79.4434-87.5977L27.5879-87.5977C17.4805-87.5977 12.4512-82.4219 12.4512-72.2656ZM20.3125 1.66016L20.3125-72.1191C20.3125-77.002 22.9004-79.7363 27.9785-79.7363L79.0527-79.7363C84.1309-79.7363 86.7188-77.002 86.7188-72.1191L86.7188 1.66016C86.7188 6.54297 84.1309 9.22852 79.0527 9.22852L27.9785 9.22852C22.9004 9.22852 20.3125 6.54297 20.3125 1.66016Z"/>
  </g>
  <g id="Light-M" transform="matrix(1 0 0 1 1100.33 1126)">
   <path d="M12.4512 2.44141C12.4512 11.9629 17.2852 16.8457 26.709 16.8457L78.9062 16.8457C88.3789 16.8457 93.1641 11.9629 93.1641 2.44141L93.1641-72.8516C93.1641-82.373 88.3789-87.207 78.9062-87.207L26.709-87.207C17.2852-87.207 12.4512-82.373 12.4512-72.8516ZM18.5059 2.29492L18.5059-72.7051C18.5059-78.2227 21.3867-81.2012 27.0508-81.2012L78.6133-81.2012C84.2285-81.2012 87.1582-78.2227 87.1582-72.7051L87.1582 2.29492C87.1582 7.8125 84.2285 10.791 78.6133 10.791L27.0508 10.791C21.3867 10.791 18.5059 7.8125 18.5059 2.29492Z"/>
  </g>
  <g id="Thin-M" transform="matrix(1 0 0 1 804.518 1126)">
   <path d="M12.4512 3.27148C12.4512 11.9629 16.9434 16.4551 25.5859 16.4551L78.2227 16.4551C86.8164 16.4551 91.3574 11.9629 91.3574 3.27148L91.3574-73.584C91.3574-82.2266 86.8164-86.7676 78.2227-86.7676L25.5859-86.7676C16.9434-86.7676 12.4512-82.2266 12.4512-73.584ZM16.0645 3.17383L16.0645-73.4863C16.0645-79.834 19.3848-83.1543 25.7812-83.1543L78.0273-83.1543C84.4238-83.1543 87.7441-79.834 87.7441-73.4863L87.7441 3.17383C87.7441 9.52148 84.4238 12.8418 78.0273 12.8418L25.7812 12.8418C19.3848 12.8418 16.0645 9.52148 16.0645 3.17383Z"/>
  </g>
  <g id="Ultralight-M" transform="matrix(1 0 0 1 508.295 1126)">
   <path d="M12.4512 3.71094C12.4512 11.9141 16.7969 16.2598 25 16.2598L77.8809 16.2598C86.0352 16.2598 90.3809 11.9141 90.3809 3.71094L90.3809-73.9746C90.3809-82.1777 86.0352-86.5234 77.8809-86.5234L25-86.5234C16.7969-86.5234 12.4512-82.1777 12.4512-73.9746ZM14.8438 3.61328L14.8438-73.877C14.8438-80.6152 18.3594-84.1309 25.0977-84.1309L77.7344-84.1309C84.5215-84.1309 87.9883-80.6152 87.9883-73.877L87.9883 3.61328C87.9883 10.3516 84.5215 13.8672 77.7344 13.8672L25.0977 13.8672C18.3594 13.8672 14.8438 10.3516 14.8438 3.61328Z"/>
  </g>
  <g id="Black-S" transform="matrix(1 0 0 1 2887.7 696)">
   <path d="M9.76562-7.08008C9.76562 2.49023 15.4297 8.1543 25 8.1543L66.4062 8.1543C75.9766 8.1543 81.6406 2.49023 81.6406-7.08008L81.6406-63.3301C81.6406-72.9004 75.9766-78.5645 66.4062-78.5645L25-78.5645C15.4297-78.5645 9.76562-72.9004 9.76562-63.3301ZM23.9258-9.32617L23.9258-61.084C23.9258-63.3301 24.8047-64.4043 27.2461-64.4043L64.1602-64.4043C66.6016-64.4043 67.4805-63.3301 67.4805-61.084L67.4805-9.32617C67.4805-7.08008 66.6016-6.00586 64.1602-6.00586L27.2461-6.00586C24.8047-6.00586 23.9258-7.08008 23.9258-9.32617Z"/>
  </g>
  <g id="Heavy-S" transform="matrix(1 0 0 1 2591.79 696)">
   <path d="M9.76562-6.93359C9.76562 2.34375 15.0391 7.61719 24.3164 7.61719L65.4785 7.61719C74.7559 7.61719 80.0293 2.34375 80.0293-6.93359L80.0293-63.4766C80.0293-72.7539 74.7559-78.0762 65.4785-78.0762L24.3164-78.0762C15.0391-78.0762 9.76562-72.7539 9.76562-63.4766ZM22.2656-8.69141L22.2656-61.7188C22.2656-64.3066 23.3887-65.5762 26.123-65.5762L63.6719-65.5762C66.4062-65.5762 67.5293-64.3066 67.5293-61.7188L67.5293-8.69141C67.5293-6.15234 66.4062-4.83398 63.6719-4.83398L26.123-4.83398C23.3887-4.83398 22.2656-6.15234 22.2656-8.69141Z"/>
  </g>
  <g id="Bold-S" transform="matrix(1 0 0 1 2295.98 696)">
   <path d="M9.76562-6.78711C9.76562 2.14844 14.6484 7.03125 23.5352 7.03125L64.4531 7.03125C73.3398 7.03125 78.2227 2.14844 78.2227-6.78711L78.2227-63.623C78.2227-72.5586 73.3398-77.4902 64.4531-77.4902L23.5352-77.4902C14.6484-77.4902 9.76562-72.5586 9.76562-63.623ZM20.3613-7.95898L20.3613-62.4512C20.3613-65.332 21.7773-66.8945 24.8047-66.8945L63.1348-66.8945C66.2109-66.8945 67.627-65.332 67.627-62.4512L67.627-7.95898C67.627-5.07812 66.2109-3.56445 63.1348-3.56445L24.8047-3.56445C21.7773-3.56445 20.3613-5.07812 20.3613-7.95898Z"/>
  </g>
  <g id="Semibold-S" transform="matrix(1 0 0 1 1999.91 696)">
   <path d="M9.76562-6.68945C9.76562 2.00195 14.3555 6.64062 22.998 6.64062L63.7695 6.64062C72.4121 6.64062 76.9531 2.00195 76.9531-6.68945L76.9531-63.7695C76.9531-72.4609 72.4121-77.0996 63.7695-77.0996L22.998-77.0996C14.3555-77.0996 9.76562-72.4609 9.76562-63.7695ZM19.0918-7.4707L19.0918-62.9883C19.0918-66.0645 20.6543-67.7734 23.9258-67.7734L62.793-67.7734C66.0645-67.7734 67.6758-66.0645 67.6758-62.9883L67.6758-7.4707C67.6758-4.39453 66.0645-2.68555 62.793-2.68555L23.9258-2.68555C20.6543-2.68555 19.0918-4.39453 19.0918-7.4707Z"/>
  </g>
  <g id="Medium-S" transform="matrix(1 0 0 1 1703.66 696)">
   <path d="M9.76562-6.64062C9.76562 1.9043 14.1113 6.29883 22.5586 6.29883L63.2324 6.29883C71.6797 6.29883 76.0254 1.9043 76.0254-6.64062L76.0254-63.8672C76.0254-72.3633 71.6797-76.8066 63.2324-76.8066L22.5586-76.8066C14.1113-76.8066 9.76562-72.3633 9.76562-63.8672ZM18.0664-7.12891L18.0664-63.3789C18.0664-66.6504 19.8242-68.457 23.291-68.457L62.5-68.457C65.9668-68.457 67.6758-66.6504 67.6758-63.3789L67.6758-7.12891C67.6758-3.85742 65.9668-2.00195 62.5-2.00195L23.291-2.00195C19.8242-2.00195 18.0664-3.85742 18.0664-7.12891Z"/>
  </g>
  <g id="Regular-S" transform="matrix(1 0 0 1 1407.56 696)">
   <path d="M9.76562-6.54297C9.76562 1.80664 13.8184 5.9082 22.0215 5.9082L62.5 5.9082C70.7031 5.9082 74.8047 1.80664 74.8047-6.54297L74.8047-63.9648C74.8047-72.2656 70.7031-76.416 62.5-76.416L22.0215-76.416C13.8184-76.416 9.76562-72.2656 9.76562-63.9648ZM16.7969-6.64062L16.7969-63.8672C16.7969-67.3828 18.7012-69.3848 22.4121-69.3848L62.1582-69.3848C65.8203-69.3848 67.7246-67.3828 67.7246-63.8672L67.7246-6.64062C67.7246-3.125 65.8203-1.12305 62.1582-1.12305L22.4121-1.12305C18.7012-1.12305 16.7969-3.125 16.7969-6.64062Z"/>
  </g>
  <g id="Light-S" transform="matrix(1 0 0 1 1111.48 696)">
   <path d="M9.76562-5.95703C9.76562 1.75781 13.623 5.66406 21.2891 5.66406L62.0605 5.66406C69.6777 5.66406 73.5352 1.75781 73.5352-5.95703L73.5352-64.4531C73.5352-72.168 69.6777-76.123 62.0605-76.123L21.2891-76.123C13.623-76.123 9.76562-72.168 9.76562-64.4531ZM15.1855-6.05469L15.1855-64.3555C15.1855-68.457 17.3828-70.6543 21.582-70.6543L61.7676-70.6543C65.9668-70.6543 68.1152-68.457 68.1152-64.3555L68.1152-6.05469C68.1152-2.00195 65.9668 0.244141 61.7676 0.244141L21.582 0.244141C17.3828 0.244141 15.1855-2.00195 15.1855-6.05469Z"/>
  </g>
  <g id="Thin-S" transform="matrix(1 0 0 1 815.578 696)">
   <path d="M9.76562-5.22461C9.76562 1.75781 13.3789 5.32227 20.2637 5.32227L61.4258 5.32227C68.3594 5.32227 71.9238 1.75781 71.9238-5.22461L71.9238-65.1367C71.9238-72.0703 68.3594-75.6836 61.4258-75.6836L20.2637-75.6836C13.3789-75.6836 9.76562-72.0703 9.76562-65.1367ZM13.0859-5.32227L13.0859-65.0391C13.0859-69.873 15.5762-72.4121 20.459-72.4121L61.2793-72.4121C66.1133-72.4121 68.6035-69.873 68.6035-65.0391L68.6035-5.32227C68.6035-0.488281 66.1133 2.05078 61.2793 2.05078L20.459 2.05078C15.5762 2.05078 13.0859-0.488281 13.0859-5.32227Z"/>
  </g>
  <g id="Ultralight-S" transform="matrix(1 0 0 1 519.281 696)">
   <path d="M9.76562-4.83398C9.76562 1.70898 13.2324 5.17578 19.7266 5.17578L61.084 5.17578C67.627 5.17578 71.0938 1.70898 71.0938-4.83398L71.0938-65.4785C71.0938-72.0215 67.627-75.4883 61.084-75.4883L19.7266-75.4883C13.2324-75.4883 9.76562-72.0215 9.76562-65.4785ZM11.9629-4.93164L11.9629-65.3809C11.9629-70.6055 14.6484-73.291 19.873-73.291L60.9863-73.291C66.2109-73.291 68.8965-70.6055 68.8965-65.3809L68.8965-4.93164C68.8965 0.244141 66.2109 2.97852 60.9863 2.97852L19.873 2.97852C14.6484 2.97852 11.9629 0.244141 11.9629-4.93164Z"/>
  </g>
 </g>
</svg>
